<?xml version="1.0" encoding="utf-8"?>
<!-- Generator: Adobe Illustrator 28.4.1, SVG Export Plug-In . SVG Version: 6.00 Build 0)  -->
<svg version="1.1" id="Layer_1" xmlns="http://www.w3.org/2000/svg" x="0px" y="0px"
	 viewBox="0 0 40.98 44.38" style="enable-background:new 0 0 40.98 44.38;" xml:space="preserve">
<style type="text/css">
	.st0{fill:#FFFFFF;}
</style>
<path class="st0" d="M11.07,29.38H6.34l12.87-17.07l6.7-2.56C28.34,6.5,33.21,0,33.21,0c6.94,4.41,4.79,9.03,2.51,12.59l5.09-0.21
	c0.24,0.71,0.12,3.29,0,3.42c-0.06,0.13-2.87,4.26-3.59,5.75c-0.29,0.61-6.7,21.34-6.82,22.83H0L11.07,29.38z M26.07,38.48
	l8.1-22.69h-4.01l2.93-8.39L23.1,20.98h5.21l-12.87,17.5H26.07z"/>
<polygon points="26.07,38.48 34.17,15.79 30.16,15.79 33.09,7.4 23.1,20.98 28.3,20.98 15.44,38.48 "/>
</svg>
