<?xml version="1.0" encoding="utf-8"?>
<!-- Generator: Adobe Illustrator 28.4.1, SVG Export Plug-In . SVG Version: 6.00 Build 0)  -->
<svg version="1.1" id="Layer_1" xmlns="http://www.w3.org/2000/svg" x="0px" y="0px"
	 viewBox="0 0 55.87 56.92" style="enable-background:new 0 0 55.87 56.92;" xml:space="preserve">
<style type="text/css">
	.st0{fill:#FFFFFF;}
</style>
<g>
	<path class="st0" d="M0,56.92l11.07-15.01H6.2l19.78-26.23l6.7-2.56l9.21-12.29l3.91,2.48c3.76,2.39,6.04,5.29,6.78,8.61
		c0.22,1,0.29,1.97,0.24,2.89l1.44-0.06l1.2,3.56c0.01,0.05,1.06,4.16-0.2,7.05l0.02,0.01c-0.18,0.4-0.3,0.58-0.86,1.43
		c-1.45,2.19-2.35,3.63-2.7,4.28c-0.89,2.57-5.91,19.03-6.45,21.45l-0.35,4.38H0z"/>
	<path d="M20.97,36.92h-4.73l12.87-17.07l6.7-2.56c2.43-3.25,7.3-9.74,7.3-9.74c6.94,4.41,4.79,9.03,2.51,12.59l5.09-0.21
		c0.24,0.71,0.12,3.29,0,3.42c-0.06,0.13-2.87,4.26-3.59,5.75c-0.29,0.61-6.7,21.34-6.82,22.83H9.9L20.97,36.92z M35.97,46.02
		l8.1-22.69h-4.01l2.93-8.39L33,28.52h5.21l-12.87,17.5H35.97z"/>
</g>
</svg>
